<svg xmlns="http://www.w3.org/2000/svg" viewBox="0 0 138.06 124.18"><defs><style>.cls-1{isolation:isolate;}.cls-2{opacity:0.78;}.cls-3{opacity:0.75;}.cls-4{mix-blend-mode:overlay;}.cls-5{fill:#fff;}</style></defs><title>web</title><g class="cls-1"><g id="Layer_2" data-name="Layer 2"><g id="Objects"><g id="_Clip_Group_" data-name="&lt;Clip Group&gt;" class="cls-2"><g id="_Group_" data-name="&lt;Group&gt;" class="cls-3"><g id="_Group_2" data-name="&lt;Group&gt;"><g id="_Group_3" data-name="&lt;Group&gt;" class="cls-4"><g id="_Group_4" data-name="&lt;Group&gt;"><g id="triangle36"><path id="_Compound_Path_" data-name="&lt;Compound Path&gt;" class="cls-5" d="M61.57,95.52h0l-7-9.32a0,0,0,0,1,0,0,0,0,0,0,1,0,0l9,2.06,0,0a0,0,0,0,1,0,0l-2,7.27a0,0,0,0,1,0,0Zm-6.89-9.3,6.88,9.17,2-7.14Z"/></g><g id="triangle36-2" data-name="triangle36"><path id="_Compound_Path_2" data-name="&lt;Compound Path&gt;" class="cls-5" d="M54.58,86.2h0l-15-16.49a0,0,0,0,1,0,0,0,0,0,0,1,0,0l26.54-2.84a0,0,0,0,1,0,0,0,0,0,0,1,0,0L54.62,86.18l0,0ZM39.7,69.7,54.58,86.09,66.07,66.88Z"/></g><g id="triangle36-3" data-name="triangle36"><path id="_Compound_Path_3" data-name="&lt;Compound Path&gt;" class="cls-5" d="M66.14,66.87a0,0,0,0,1,0,0,0,0,0,0,1,0-.05l19-9.32h0a0,0,0,0,1,0,0l-1.35,6.82a0,0,0,0,1,0,0l-17.62,2.5Zm18.93-9.29L66.41,66.75l17.33-2.46Z"/></g><g id="triangle36-4" data-name="triangle36"><path id="_Compound_Path_4" data-name="&lt;Compound Path&gt;" class="cls-5" d="M104.45,119h0a0,0,0,0,1,0,0l3.47-34.25a0,0,0,0,1,0,0,0,0,0,0,1,0,0l7.52,9.44a0,0,0,0,1,0,0l-11,24.81A0,0,0,0,1,104.45,119Zm3.5-34.19-3.43,33.9L115.4,94.15Z"/></g><g id="triangle36-5" data-name="triangle36"><path id="_Compound_Path_5" data-name="&lt;Compound Path&gt;" class="cls-5" d="M83.76,64.36l0,0a0,0,0,0,1,0,0l1.35-6.82,0,0h0l33.12,14.11a0,0,0,0,1,0,.05,0,0,0,0,1,0,0L83.76,64.36Zm1.39-6.8-1.33,6.73,34,7.19Z"/></g><g id="triangle36-6" data-name="triangle36"><path id="_Compound_Path_6" data-name="&lt;Compound Path&gt;" class="cls-5" d="M107.91,84.74h0L83.75,64.36a0,0,0,0,1,0-.05,0,0,0,0,1,0,0l34.47,7.29h0l0,0a0,0,0,0,1,0,0L107.95,84.72Zm-24-20.34,24,20.24,10.26-13Z"/></g><g id="triangle36-7" data-name="triangle36"><path id="_Path_" data-name="&lt;Path&gt;" class="cls-5" d="M76.4,117l.15,0L64.29,105.08,104.38,119l-3.07,3.7.09,0,3.08-3.71a0,0,0,0,0,0,0,0,0,0,0,0,0,0l-40.33-14a0,0,0,0,0,0,0,0,0,0,0,0,0,.05Z"/></g><g id="triangle36-8" data-name="triangle36"><path id="_Path_2" data-name="&lt;Path&gt;" class="cls-5" d="M120.37,92.72l-4.85,1.35,7.26-13.55.05-.27-7.43,13.86a0,0,0,0,0,0,0l0,0h0l4.9-1.37Z"/></g><g id="triangle36-9" data-name="triangle36"><path id="_Path_3" data-name="&lt;Path&gt;" class="cls-5" d="M119.2,98.62l-3.68-4.46,4.83-1.35,0-.09-4.94,1.38a0,0,0,0,0,0,0,0,0,0,0,0,0,0l3.77,4.56Z"/></g><g id="triangle36-10" data-name="triangle36"><path id="_Path_4" data-name="&lt;Path&gt;" class="cls-5" d="M4.52,100.53l.62-7.19L15.5,103l.16,0L5.13,93.22h0a0,0,0,0,0,0,0l-.63,7.26Z"/></g><g id="triangle36-11" data-name="triangle36"><path id="_Path_5" data-name="&lt;Path&gt;" class="cls-5" d="M15.5,103l.16,0L5.29,93.37l12.13,4.52.18,5.63.08,0-.19-5.68a0,0,0,0,0,0,0L5.12,93.22a0,0,0,0,0,0,0,0,0,0,0,0,0,.05Z"/></g><g id="triangle36-12" data-name="triangle36"><path id="_Compound_Path_7" data-name="&lt;Compound Path&gt;" class="cls-5" d="M54.58,86.2h0L39.94,76.32a0,0,0,0,1,0,0l-.35-6.61a0,0,0,0,1,0,0,0,0,0,0,1,0,0l15,16.49a0,0,0,0,1,0,0,0,0,0,0,1,0,0ZM40,76.26l14.32,9.68L39.66,69.78Z"/></g><g id="triangle36-13" data-name="triangle36"><path id="_Compound_Path_8" data-name="&lt;Compound Path&gt;" class="cls-5" d="M17.45,97.91h0L5.09,93.3l0,0a0,0,0,0,1,0,0L17.84,70.61a0,0,0,0,1,0,0,0,0,0,0,1,0,0L17.5,97.86a0,0,0,0,1,0,0ZM5.16,93.23,17.42,97.8l.41-27Z"/></g><g id="triangle36-14" data-name="triangle36"><path id="_Compound_Path_9" data-name="&lt;Compound Path&gt;" class="cls-5" d="M17.45,97.91h0a0,0,0,0,1,0,0l.42-27.23a0,0,0,0,1,0,0h0L40,76.24a0,0,0,0,1,0,0,0,0,0,0,1,0,0L17.48,97.89Zm.46-27.22L17.5,97.77,39.88,76.3Z"/></g><g id="triangle36-15" data-name="triangle36"><path id="_Compound_Path_10" data-name="&lt;Compound Path&gt;" class="cls-5" d="M40,76.32h0L17.86,70.68a0,0,0,0,1,0,0,0,0,0,0,1,0,0l21.74-1a0,0,0,0,1,0,0l.35,6.6a0,0,0,0,1,0,0A0,0,0,0,1,40,76.32ZM18.16,70.66l21.76,5.56-.34-6.51Z"/></g><g id="triangle36-16" data-name="triangle36"><path id="_Path_6" data-name="&lt;Path&gt;" class="cls-5" d="M59.69,113.15,64.13,105,76.4,117l.15,0-12.4-12.07h0l0,0-4.47,8.19Z"/></g><g id="triangle36-17" data-name="triangle36"><path id="_Path_7" data-name="&lt;Path&gt;" class="cls-5" d="M49.36,110.79,64,105.05l-4.42,8.08.08,0L64.16,105a0,0,0,0,0,0,0,0,0,0,0,0,0,0l-14.9,5.82Z"/></g><g id="triangle36-18" data-name="triangle36"><path id="_Compound_Path_11" data-name="&lt;Compound Path&gt;" class="cls-5" d="M46.48,99.2l0,0a0,0,0,0,1,0,0l8.1-13,0,0,0,0,7,9.32a0,0,0,0,1,0,0l0,0L46.49,99.2Zm8.11-13-8,12.86,14.93-3.64Z"/></g><g id="triangle36-19" data-name="triangle36"><path id="_Compound_Path_12" data-name="&lt;Compound Path&gt;" class="cls-5" d="M64.11,105h0L46.47,99.2a0,0,0,0,1,0,0,0,0,0,0,1,0,0l15.09-3.68a0,0,0,0,1,0,0L64.16,105a0,0,0,0,1,0,0,0,0,0,0,1,0,0ZM46.64,99.16l17.42,5.74-2.51-9.38Z"/></g><g id="triangle36-20" data-name="triangle36"><path id="_Path_8" data-name="&lt;Path&gt;" class="cls-5" d="M17.68,103.55l-.19-5.64,28.64,1.28L21,104.32l.2,0L46.49,99.2a0,0,0,0,0,0,0,0,0,0,0,0,0,0l-29-1.29h0a0,0,0,0,0,0,0l.18,5.66Z"/></g><g id="triangle36-21" data-name="triangle36"><path id="_Compound_Path_13" data-name="&lt;Compound Path&gt;" class="cls-5" d="M17.45,97.91a0,0,0,0,1,0,0,0,0,0,0,1,0,0l22.5-21.58h0a0,0,0,0,1,0,0l6.52,22.88a0,0,0,0,1,0,0l0,0-29-1.29ZM39.94,76.36,17.56,97.83l28.88,1.29Z"/></g><g id="triangle36-22" data-name="triangle36"><path id="_Path_9" data-name="&lt;Path&gt;" class="cls-5" d="M21.25,104.36l25.19-5.15-1.22,10.63.08,0,1.23-10.7a0,0,0,0,0,0,0h0L21,104.32Z"/></g><g id="triangle36-23" data-name="triangle36"><path id="_Compound_Path_14" data-name="&lt;Compound Path&gt;" class="cls-5" d="M46.48,99.2a0,0,0,0,1,0,0L39.92,76.29a0,0,0,0,1,0,0,0,0,0,0,1,0,0L54.6,86.12l0,0a0,0,0,0,1,0,0l-8.1,13,0,0ZM40,76.38,46.5,99.06l8-12.89Z"/></g><g id="triangle36-24" data-name="triangle36"><path id="_Path_10" data-name="&lt;Path&gt;" class="cls-5" d="M45.3,109.86l1.22-10.65L64,105l-14.78,5.78.15,0L64.14,105a0,0,0,0,0,0,0,0,0,0,0,0,0,0L46.5,99.12h0a0,0,0,0,0,0,0l-1.23,10.69Z"/></g><g id="triangle36-25" data-name="triangle36"><path id="_Compound_Path_15" data-name="&lt;Compound Path&gt;" class="cls-5" d="M5.1,93.3l0,0-3.18-9a0,0,0,0,1,0,0l16-13.58a0,0,0,0,1,0,0,0,0,0,0,1,0,.05L5.14,93.28a0,0,0,0,1,0,0ZM2,84.23l3.14,8.93L17.72,70.82Z"/></g><g id="triangle36-26" data-name="triangle36"><path id="_Compound_Path_16" data-name="&lt;Compound Path&gt;" class="cls-5" d="M107.91,84.74h0a0,0,0,0,1,0-.06l10.32-13.08,0,0h0l3.67,3.81a0,0,0,0,1,0,.07l-14,9.27Zm10.34-13.06L108.11,84.52l13.73-9.1Z"/></g><g id="triangle36-27" data-name="triangle36"><path id="_Compound_Path_17" data-name="&lt;Compound Path&gt;" class="cls-5" d="M115.43,94.18h0l-7.53-9.44a0,0,0,0,1,0,0l0,0,14-9.27a0,0,0,0,1,0,0,0,0,0,0,1,0,0l-6.47,18.72,0,0ZM108,84.71l7.45,9.35,6.4-18.53Z"/></g><g id="triangle36-28" data-name="triangle36"><path id="_Path_11" data-name="&lt;Path&gt;" class="cls-5" d="M123.72,75.79l-1.79-.41-3.39-3.53,5.27,3.49,0-.09-5.56-3.69a0,0,0,0,0-.05,0,0,0,0,0,0,0,.06l3.66,3.81h0l1.8.41Z"/></g><g id="triangle36-29" data-name="triangle36"><path id="_Path_12" data-name="&lt;Path&gt;" class="cls-5" d="M122.84,80.25l-7.19,13.42,6.29-18.2,1.77.4,0-.08-1.8-.41a0,0,0,0,0,0,0l-6.47,18.72a0,0,0,0,0,0,.05h0a0,0,0,0,0,0,0l7.31-13.64Z"/></g><g id="triangle36-30" data-name="triangle36"><path id="_Path_13" data-name="&lt;Path&gt;" class="cls-5" d="M123.82,75.26l-5.5-3.65,7.12-4.51,0-.11-7.24,4.58a.06.06,0,0,0,0,0,0,0,0,0,0,0,0l5.58,3.7Z"/></g><g id="triangle36-31" data-name="triangle36"><path id="_Compound_Path_18" data-name="&lt;Compound Path&gt;" class="cls-5" d="M80.62,88.6l0,0L66.11,66.85a0,0,0,0,1,0,0l0,0,17.62-2.5h0a0,0,0,0,1,0,0L80.67,88.55v0a0,0,0,0,1,0,0ZM66.22,66.86,80.61,88.44l3.12-24.07Z"/></g><g id="triangle36-32" data-name="triangle36"><path id="_Compound_Path_19" data-name="&lt;Compound Path&gt;" class="cls-5" d="M64.11,105h0l0,0-2.54-9.49a0,0,0,0,1,0-.05l19.05-6.93a0,0,0,0,1,0,0,0,0,0,0,1,0,.05L64.15,105Zm-2.48-9.51,2.51,9.39L80.47,88.66Z"/></g><g id="triangle36-33" data-name="triangle36"><path id="_Compound_Path_20" data-name="&lt;Compound Path&gt;" class="cls-5" d="M104.45,119h0L64.11,105a0,0,0,0,1,0,0,0,0,0,0,1,0,0L80.61,88.52h.06l23.82,30.4a0,0,0,0,1,0,.05A0,0,0,0,1,104.45,119ZM64.2,105l40.14,13.91L80.63,88.62Z"/></g><g id="triangle36-34" data-name="triangle36"><path id="_Compound_Path_21" data-name="&lt;Compound Path&gt;" class="cls-5" d="M80.62,88.6h0a.06.06,0,0,1,0,0l3.14-24.23a0,0,0,0,1,0,0h0l24.15,20.37a0,0,0,0,1,0,0,0,0,0,0,1,0,0L80.64,88.6ZM83.8,64.4,80.68,88.5l27.14-3.84Z"/></g><g id="triangle36-35" data-name="triangle36"><path id="_Compound_Path_22" data-name="&lt;Compound Path&gt;" class="cls-5" d="M104.45,119h0L80.6,88.58a0,0,0,0,1,0,0,0,0,0,0,1,0,0l27.29-3.86h0a0,0,0,0,1,0,0l-3.46,34.24a0,0,0,0,1,0,0,0,0,0,0,1,0,0ZM80.71,88.59l23.72,30.26,3.45-34.1Z"/></g><g id="triangle36-36" data-name="triangle36"><path id="_Compound_Path_23" data-name="&lt;Compound Path&gt;" class="cls-5" d="M85.11,57.54h0a0,0,0,0,1,0-.06l18.46-29,0,0,0,0,5.11,7.7a0,0,0,0,1,0,.06L85.15,57.54Zm18.47-29L85.32,57.27l23.31-21.11Z"/></g><g id="triangle36-37" data-name="triangle36"><path id="_Compound_Path_24" data-name="&lt;Compound Path&gt;" class="cls-5" d="M118.24,71.66h0L85.11,57.54a0,0,0,0,1,0,0,0,0,0,0,1,0,0l23.56-21.34h0l0,0,9.56,35.45a0,0,0,0,1,0,0Zm-33-14.17,33,14.05-9.52-35.3Z"/></g><g id="triangle36-38" data-name="triangle36"><path id="_Compound_Path_25" data-name="&lt;Compound Path&gt;" class="cls-5" d="M54.58,86.2l0,0a.05.05,0,0,1,0,0L66.11,66.8a0,0,0,0,1,0,0,0,0,0,0,1,0,0l-.76,20.62v0h0L54.58,86.2ZM66.1,67,54.65,86.12l10.69,1.27Z"/></g><g id="triangle36-39" data-name="triangle36"><path id="_Compound_Path_26" data-name="&lt;Compound Path&gt;" class="cls-5" d="M63.56,88.26l-9-2.06a0,0,0,0,1,0,0,0,0,0,0,1,0,0l10.8,1.28a0,0,0,0,1,0,0,0,0,0,0,1,0,0l-1.81.77Zm-8.19-2,8.19,1.87,1.65-.71Z"/></g><g id="triangle36-40" data-name="triangle36"><path id="_Compound_Path_27" data-name="&lt;Compound Path&gt;" class="cls-5" d="M65.37,87.48a0,0,0,0,1,0,0l.77-20.62a0,0,0,0,1,0,0,0,0,0,0,1,0,0L80.67,88.53a.05.05,0,0,1,0,0,0,0,0,0,1,0,0L65.38,87.48ZM66.18,67,65.42,87.4l15.13,1.1Z"/></g><g id="triangle36-41" data-name="triangle36"><path id="_Compound_Path_28" data-name="&lt;Compound Path&gt;" class="cls-5" d="M61.57,95.52h0a0,0,0,0,1,0-.05l2-7.27,0,0,1.81-.77a0,0,0,0,1,0,0,0,0,0,0,1,0,0l-3.8,8A0,0,0,0,1,61.57,95.52Zm2-7.28L61.74,95l3.56-7.53Z"/></g><g id="triangle36-42" data-name="triangle36"><path id="_Compound_Path_29" data-name="&lt;Compound Path&gt;" class="cls-5" d="M61.57,95.52h0a0,0,0,0,1,0,0l3.8-8a0,0,0,0,1,0,0l15.25,1.11a0,0,0,0,1,0,0,0,0,0,0,1,0,0L61.59,95.52Zm3.83-8-3.74,7.92,18.77-6.83Z"/></g><g id="triangle36-43" data-name="triangle36"><path id="_Path_14" data-name="&lt;Path&gt;" class="cls-5" d="M136.3,12.23,115,.86l22.14,7,0-.08L114.61.65a0,0,0,0,0,0,0,0,0,0,0,0,0,.05l21.7,11.6Z"/></g><g id="triangle36-44" data-name="triangle36"><path id="_Path_15" data-name="&lt;Path&gt;" class="cls-5" d="M137.18,7.77,115,.78l23,2.75,0-.08L114.61.64a0,0,0,0,0,0,0,0,0,0,0,0,0,.05l22.58,7.12Z"/></g><g id="triangle36-45" data-name="triangle36"><path id="_Path_16" data-name="&lt;Path&gt;" class="cls-5" d="M138,3.45l-5.75-.69,5.75.66,0-.08L114.61.64h0a0,0,0,0,0,0,0,0,0,0,0,0,0,0h0L138,3.53Z"/></g><g id="triangle36-46" data-name="triangle36"><path id="_Path_17" data-name="&lt;Path&gt;" class="cls-5" d="M132.69,30.47l-29.05-2,11-27.65,19,25.14,0-.11L114.63.66l0,0a0,0,0,0,0,0,0l-11,27.77a0,0,0,0,0,0,0l0,0h0l29.1,2.05Z"/></g><g id="triangle36-47" data-name="triangle36"><path id="_Path_18" data-name="&lt;Path&gt;" class="cls-5" d="M132.44,31.71l-23.74,4.4-5-7.61,29,2,0-.08-29.11-2.05a0,0,0,0,0,0,0,0,0,0,0,0,0,0l5.11,7.7,0,0h0l23.74-4.4Z"/></g><g id="triangle36-48" data-name="triangle36"><path id="_Path_19" data-name="&lt;Path&gt;" class="cls-5" d="M133.61,25.81,114.75.81l21.54,11.51,0-.09L114.62.65a0,0,0,0,0,0,0,0,0,0,0,0,0,.05l19,25.2Z"/></g><g id="triangle36-49" data-name="triangle36"><path id="_Path_20" data-name="&lt;Path&gt;" class="cls-5" d="M129.18,48.2,118.25,71.5l-9.52-35.3,23.69-4.39,0-.09-23.77,4.41,0,0a0,0,0,0,0,0,0l9.56,35.45a0,0,0,0,0,0,0h0a0,0,0,0,0,0,0l10.84-23.11Z"/></g><g id="triangle36-50" data-name="triangle36"><path id="_Path_21" data-name="&lt;Path&gt;" class="cls-5" d="M125.46,67l-7.12,4.51,10.78-23,.07-.33-11,23.4a0,0,0,0,0,0,.05h0l7.17-4.54Z"/></g><g id="triangle36-51" data-name="triangle36"><path id="_Path_22" data-name="&lt;Path&gt;" class="cls-5" d="M3.8,100.37,5,94l-.56,6.48.08,0,.63-7.27a0,0,0,0,0,0,0,0,0,0,0,0,0,0l-1.35,7.1Z"/></g><g id="triangle36-52" data-name="triangle36"><path id="_Path_23" data-name="&lt;Path&gt;" class="cls-5" d="M.08,99.52,1.94,84.39l3.12,8.87-1.34,7.09.08,0,1.35-7.11a.1.1,0,0,0,0,0L2,84.2a0,0,0,0,0,0,0,0,0,0,0,0,0,0L0,99.5Z"/></g><g id="triangle36-53" data-name="triangle36"><path id="_Path_24" data-name="&lt;Path&gt;" class="cls-5" d="M114.33,123.22l-9.82-4.3,10.91-24.63L117,109.62l.05-.26-1.59-15.22a0,0,0,0,0,0,0,0,0,0,0,0,0,0l-11,24.81a0,0,0,0,0,0,0l0,0,9.88,4.32Z"/></g><g id="triangle36-54" data-name="triangle36"><path id="_Path_25" data-name="&lt;Path&gt;" class="cls-5" d="M117.08,109.36,115.5,94.27l3.68,4.46,0-.1-3.73-4.51a0,0,0,0,0,0,0,0,0,0,0,0,0,0L117,109.62Z"/></g><g id="triangle36-55" data-name="triangle36"><path id="_Path_26" data-name="&lt;Path&gt;" class="cls-5" d="M101.4,122.69l3.05-3.67,3.33,5.13.11,0-3.41-5.25,0,0h0l-3.12,3.75Z"/></g><g id="triangle36-56" data-name="triangle36"><path id="_Path_27" data-name="&lt;Path&gt;" class="cls-5" d="M107.78,124.15l.11,0L104.56,119l9.75,4.26,0-.09-9.86-4.31a0,0,0,0,0,0,0,0,0,0,0,0,0,.05Z"/></g></g><path id="_Path_28" data-name="&lt;Path&gt;" class="cls-5" d="M62.95,88.07a.69.69,0,0,0,.49.81.64.64,0,0,0,.76-.53.69.69,0,0,0-.49-.81A.64.64,0,0,0,62.95,88.07Z"/><path id="_Path_29" data-name="&lt;Path&gt;" class="cls-5" d="M61,95.34a.68.68,0,0,0,.49.81.64.64,0,0,0,.75-.53.68.68,0,0,0-.49-.81A.64.64,0,0,0,61,95.34Z"/><path id="_Path_30" data-name="&lt;Path&gt;" class="cls-5" d="M54,86a.69.69,0,0,0,.49.82.64.64,0,0,0,.76-.53.69.69,0,0,0-.49-.81A.64.64,0,0,0,54,86Z"/><path id="_Path_31" data-name="&lt;Path&gt;" class="cls-5" d="M65.52,66.68a.69.69,0,0,0,.49.81.64.64,0,0,0,.76-.53.69.69,0,0,0-.49-.81A.64.64,0,0,0,65.52,66.68Z"/><path id="_Path_32" data-name="&lt;Path&gt;" class="cls-5" d="M84.5,57.36a.69.69,0,0,0,.49.81.64.64,0,0,0,.76-.53.69.69,0,0,0-.49-.81A.64.64,0,0,0,84.5,57.36Z"/><path id="_Path_33" data-name="&lt;Path&gt;" class="cls-5" d="M65.52,66.68a.69.69,0,0,0,.49.81.64.64,0,0,0,.76-.53.69.69,0,0,0-.49-.81A.64.64,0,0,0,65.52,66.68Z"/><path id="_Path_34" data-name="&lt;Path&gt;" class="cls-5" d="M54,86a.69.69,0,0,0,.49.82.64.64,0,0,0,.76-.53.69.69,0,0,0-.49-.81A.64.64,0,0,0,54,86Z"/><path id="_Path_35" data-name="&lt;Path&gt;" class="cls-5" d="M39,69.52a.69.69,0,0,0,.49.81.64.64,0,0,0,.76-.53.69.69,0,0,0-.49-.81A.64.64,0,0,0,39,69.52Z"/><path id="_Path_36" data-name="&lt;Path&gt;" class="cls-5" d="M65.52,66.68a.69.69,0,0,0,.49.81.64.64,0,0,0,.76-.53.69.69,0,0,0-.49-.81A.64.64,0,0,0,65.52,66.68Z"/><path id="_Path_37" data-name="&lt;Path&gt;" class="cls-5" d="M39,69.52a.69.69,0,0,0,.49.81.64.64,0,0,0,.76-.53.69.69,0,0,0-.49-.81A.64.64,0,0,0,39,69.52Z"/><path id="_Path_38" data-name="&lt;Path&gt;" class="cls-5" d="M65.52,66.68a.69.69,0,0,0,.49.81.64.64,0,0,0,.76-.53.69.69,0,0,0-.49-.81A.64.64,0,0,0,65.52,66.68Z"/><path id="_Path_39" data-name="&lt;Path&gt;" class="cls-5" d="M83.15,64.18a.69.69,0,0,0,.49.81.64.64,0,0,0,.76-.53.69.69,0,0,0-.49-.81A.64.64,0,0,0,83.15,64.18Z"/><path id="_Path_40" data-name="&lt;Path&gt;" class="cls-5" d="M84.5,57.36a.69.69,0,0,0,.49.81.64.64,0,0,0,.76-.53.69.69,0,0,0-.49-.81A.64.64,0,0,0,84.5,57.36Z"/><path id="_Path_41" data-name="&lt;Path&gt;" class="cls-5" d="M65.52,66.68a.69.69,0,0,0,.49.81.64.64,0,0,0,.76-.53.69.69,0,0,0-.49-.81A.64.64,0,0,0,65.52,66.68Z"/><path id="_Path_42" data-name="&lt;Path&gt;" class="cls-5" d="M114,.54a.69.69,0,0,0,.49.81.64.64,0,0,0,.76-.53.69.69,0,0,0-.49-.81A.64.64,0,0,0,114,.54Z"/><path id="_Path_43" data-name="&lt;Path&gt;" class="cls-5" d="M107.29,84.55a.69.69,0,0,0,.49.81.64.64,0,0,0,.76-.53.69.69,0,0,0-.49-.81A.64.64,0,0,0,107.29,84.55Z"/><path id="_Path_44" data-name="&lt;Path&gt;" class="cls-5" d="M114.82,94a.69.69,0,0,0,.49.81.64.64,0,0,0,.76-.53.69.69,0,0,0-.49-.81A.64.64,0,0,0,114.82,94Z"/><path id="_Path_45" data-name="&lt;Path&gt;" class="cls-5" d="M103.83,118.81a.69.69,0,0,0,.49.81.64.64,0,0,0,.76-.53.69.69,0,0,0-.49-.81A.64.64,0,0,0,103.83,118.81Z"/><path id="_Path_46" data-name="&lt;Path&gt;" class="cls-5" d="M117.62,71.47a.69.69,0,0,0,.49.81.64.64,0,0,0,.76-.53.69.69,0,0,0-.49-.81A.64.64,0,0,0,117.62,71.47Z"/><path id="_Path_47" data-name="&lt;Path&gt;" class="cls-5" d="M84.5,57.36a.69.69,0,0,0,.49.81.64.64,0,0,0,.76-.53.69.69,0,0,0-.49-.81A.64.64,0,0,0,84.5,57.36Z"/><path id="_Path_48" data-name="&lt;Path&gt;" class="cls-5" d="M83.15,64.18a.69.69,0,0,0,.49.81.64.64,0,0,0,.76-.53.69.69,0,0,0-.49-.81A.64.64,0,0,0,83.15,64.18Z"/><path id="_Path_49" data-name="&lt;Path&gt;" class="cls-5" d="M117.62,71.47a.69.69,0,0,0,.49.81.64.64,0,0,0,.76-.53.69.69,0,0,0-.49-.81A.64.64,0,0,0,117.62,71.47Z"/><path id="_Path_50" data-name="&lt;Path&gt;" class="cls-5" d="M107.29,84.55a.69.69,0,0,0,.49.81.64.64,0,0,0,.76-.53.69.69,0,0,0-.49-.81A.64.64,0,0,0,107.29,84.55Z"/><path id="_Path_51" data-name="&lt;Path&gt;" class="cls-5" d="M83.15,64.18a.69.69,0,0,0,.49.81.64.64,0,0,0,.76-.53.69.69,0,0,0-.49-.81A.64.64,0,0,0,83.15,64.18Z"/><path id="_Path_52" data-name="&lt;Path&gt;" class="cls-5" d="M103,28.32a.69.69,0,0,0,.49.81.64.64,0,0,0,.76-.53.69.69,0,0,0-.49-.81A.64.64,0,0,0,103,28.32Z"/><path id="_Path_53" data-name="&lt;Path&gt;" class="cls-5" d="M84.5,57.36a.69.69,0,0,0,.49.81.64.64,0,0,0,.76-.53.69.69,0,0,0-.49-.81A.64.64,0,0,0,84.5,57.36Z"/><path id="_Path_54" data-name="&lt;Path&gt;" class="cls-5" d="M63.5,104.83a.69.69,0,0,0,.49.81.64.64,0,0,0,.76-.53.68.68,0,0,0-.49-.81A.64.64,0,0,0,63.5,104.83Z"/><path id="_Path_55" data-name="&lt;Path&gt;" class="cls-5" d="M103.83,118.81a.69.69,0,0,0,.49.81.64.64,0,0,0,.76-.53.69.69,0,0,0-.49-.81A.64.64,0,0,0,103.83,118.81Z"/><path id="_Path_56" data-name="&lt;Path&gt;" class="cls-5" d="M103,28.32a.69.69,0,0,0,.49.81.64.64,0,0,0,.76-.53.69.69,0,0,0-.49-.81A.64.64,0,0,0,103,28.32Z"/><path id="_Path_57" data-name="&lt;Path&gt;" class="cls-5" d="M114.82,94a.69.69,0,0,0,.49.81.64.64,0,0,0,.76-.53.69.69,0,0,0-.49-.81A.64.64,0,0,0,114.82,94Z"/><path id="_Path_58" data-name="&lt;Path&gt;" class="cls-5" d="M114.82,94a.69.69,0,0,0,.49.81.64.64,0,0,0,.76-.53.69.69,0,0,0-.49-.81A.64.64,0,0,0,114.82,94Z"/><path id="_Path_59" data-name="&lt;Path&gt;" class="cls-5" d="M4.48,93.11a.69.69,0,0,0,.49.81.64.64,0,0,0,.76-.53.69.69,0,0,0-.49-.81A.64.64,0,0,0,4.48,93.11Z"/><path id="_Path_60" data-name="&lt;Path&gt;" class="cls-5" d="M16.83,97.72a.69.69,0,0,0,.49.81.64.64,0,0,0,.76-.53.69.69,0,0,0-.49-.81A.64.64,0,0,0,16.83,97.72Z"/><path id="_Path_61" data-name="&lt;Path&gt;" class="cls-5" d="M4.48,93.11a.69.69,0,0,0,.49.81.64.64,0,0,0,.76-.53.69.69,0,0,0-.49-.81A.64.64,0,0,0,4.48,93.11Z"/><path id="_Path_62" data-name="&lt;Path&gt;" class="cls-5" d="M39.34,76.14a.69.69,0,0,0,.49.81.64.64,0,0,0,.76-.53.68.68,0,0,0-.49-.81A.64.64,0,0,0,39.34,76.14Z"/><path id="_Path_63" data-name="&lt;Path&gt;" class="cls-5" d="M54,86a.69.69,0,0,0,.49.82.64.64,0,0,0,.76-.53.69.69,0,0,0-.49-.81A.64.64,0,0,0,54,86Z"/><path id="_Path_64" data-name="&lt;Path&gt;" class="cls-5" d="M39,69.52a.69.69,0,0,0,.49.81.64.64,0,0,0,.76-.53.69.69,0,0,0-.49-.81A.64.64,0,0,0,39,69.52Z"/><path id="_Path_65" data-name="&lt;Path&gt;" class="cls-5" d="M114,.54a.69.69,0,0,0,.49.81.64.64,0,0,0,.76-.53.69.69,0,0,0-.49-.81A.64.64,0,0,0,114,.54Z"/><path id="_Path_66" data-name="&lt;Path&gt;" class="cls-5" d="M103,28.32a.69.69,0,0,0,.49.81.64.64,0,0,0,.76-.53.69.69,0,0,0-.49-.81A.64.64,0,0,0,103,28.32Z"/><path id="_Path_67" data-name="&lt;Path&gt;" class="cls-5" d="M114,.54a.69.69,0,0,0,.49.81.64.64,0,0,0,.76-.53.69.69,0,0,0-.49-.81A.64.64,0,0,0,114,.54Z"/><path id="_Path_68" data-name="&lt;Path&gt;" class="cls-5" d="M103,28.32a.69.69,0,0,0,.49.81.64.64,0,0,0,.76-.53.69.69,0,0,0-.49-.81A.64.64,0,0,0,103,28.32Z"/><path id="_Path_69" data-name="&lt;Path&gt;" class="cls-5" d="M17.25,70.49a.69.69,0,0,0,.49.81.64.64,0,0,0,.76-.53A.69.69,0,0,0,18,70,.64.64,0,0,0,17.25,70.49Z"/><path id="_Path_70" data-name="&lt;Path&gt;" class="cls-5" d="M16.83,97.72a.69.69,0,0,0,.49.81.64.64,0,0,0,.76-.53.69.69,0,0,0-.49-.81A.64.64,0,0,0,16.83,97.72Z"/><path id="_Path_71" data-name="&lt;Path&gt;" class="cls-5" d="M4.48,93.11a.69.69,0,0,0,.49.81.64.64,0,0,0,.76-.53.69.69,0,0,0-.49-.81A.64.64,0,0,0,4.48,93.11Z"/><path id="_Path_72" data-name="&lt;Path&gt;" class="cls-5" d="M17.25,70.49a.69.69,0,0,0,.49.81.64.64,0,0,0,.76-.53A.69.69,0,0,0,18,70,.64.64,0,0,0,17.25,70.49Z"/><path id="_Path_73" data-name="&lt;Path&gt;" class="cls-5" d="M39.34,76.14a.69.69,0,0,0,.49.81.64.64,0,0,0,.76-.53.68.68,0,0,0-.49-.81A.64.64,0,0,0,39.34,76.14Z"/><path id="_Path_74" data-name="&lt;Path&gt;" class="cls-5" d="M16.83,97.72a.69.69,0,0,0,.49.81.64.64,0,0,0,.76-.53.69.69,0,0,0-.49-.81A.64.64,0,0,0,16.83,97.72Z"/><path id="_Path_75" data-name="&lt;Path&gt;" class="cls-5" d="M17.25,70.49a.69.69,0,0,0,.49.81.64.64,0,0,0,.76-.53A.69.69,0,0,0,18,70,.64.64,0,0,0,17.25,70.49Z"/><path id="_Path_76" data-name="&lt;Path&gt;" class="cls-5" d="M39.34,76.14a.69.69,0,0,0,.49.81.64.64,0,0,0,.76-.53.68.68,0,0,0-.49-.81A.64.64,0,0,0,39.34,76.14Z"/><path id="_Path_77" data-name="&lt;Path&gt;" class="cls-5" d="M39,69.52a.69.69,0,0,0,.49.81.64.64,0,0,0,.76-.53.69.69,0,0,0-.49-.81A.64.64,0,0,0,39,69.52Z"/><path id="_Path_78" data-name="&lt;Path&gt;" class="cls-5" d="M63.5,104.83a.69.69,0,0,0,.49.81.64.64,0,0,0,.76-.53.68.68,0,0,0-.49-.81A.64.64,0,0,0,63.5,104.83Z"/><path id="_Path_79" data-name="&lt;Path&gt;" class="cls-5" d="M63.5,104.83a.69.69,0,0,0,.49.81.64.64,0,0,0,.76-.53.68.68,0,0,0-.49-.81A.64.64,0,0,0,63.5,104.83Z"/><path id="_Path_80" data-name="&lt;Path&gt;" class="cls-5" d="M114,.54a.69.69,0,0,0,.49.81.64.64,0,0,0,.76-.53.69.69,0,0,0-.49-.81A.64.64,0,0,0,114,.54Z"/><path id="_Path_81" data-name="&lt;Path&gt;" class="cls-5" d="M45.86,99a.69.69,0,0,0,.49.81.64.64,0,0,0,.76-.53.69.69,0,0,0-.49-.81A.64.64,0,0,0,45.86,99Z"/><path id="_Path_82" data-name="&lt;Path&gt;" class="cls-5" d="M61,95.34a.68.68,0,0,0,.49.81.64.64,0,0,0,.75-.53.68.68,0,0,0-.49-.81A.64.64,0,0,0,61,95.34Z"/><path id="_Path_83" data-name="&lt;Path&gt;" class="cls-5" d="M54,86a.69.69,0,0,0,.49.82.64.64,0,0,0,.76-.53.69.69,0,0,0-.49-.81A.64.64,0,0,0,54,86Z"/><path id="_Path_84" data-name="&lt;Path&gt;" class="cls-5" d="M45.86,99a.69.69,0,0,0,.49.81.64.64,0,0,0,.76-.53.69.69,0,0,0-.49-.81A.64.64,0,0,0,45.86,99Z"/><path id="_Path_85" data-name="&lt;Path&gt;" class="cls-5" d="M63.5,104.83a.69.69,0,0,0,.49.81.64.64,0,0,0,.76-.53.68.68,0,0,0-.49-.81A.64.64,0,0,0,63.5,104.83Z"/><path id="_Path_86" data-name="&lt;Path&gt;" class="cls-5" d="M61,95.34a.68.68,0,0,0,.49.81.64.64,0,0,0,.75-.53.68.68,0,0,0-.49-.81A.64.64,0,0,0,61,95.34Z"/><path id="_Path_87" data-name="&lt;Path&gt;" class="cls-5" d="M45.86,99a.69.69,0,0,0,.49.81.64.64,0,0,0,.76-.53.69.69,0,0,0-.49-.81A.64.64,0,0,0,45.86,99Z"/><path id="_Path_88" data-name="&lt;Path&gt;" class="cls-5" d="M16.83,97.72a.69.69,0,0,0,.49.81.64.64,0,0,0,.76-.53.69.69,0,0,0-.49-.81A.64.64,0,0,0,16.83,97.72Z"/><path id="_Path_89" data-name="&lt;Path&gt;" class="cls-5" d="M45.86,99a.69.69,0,0,0,.49.81.64.64,0,0,0,.76-.53.69.69,0,0,0-.49-.81A.64.64,0,0,0,45.86,99Z"/><path id="_Path_90" data-name="&lt;Path&gt;" class="cls-5" d="M39.34,76.14a.69.69,0,0,0,.49.81.64.64,0,0,0,.76-.53.68.68,0,0,0-.49-.81A.64.64,0,0,0,39.34,76.14Z"/><path id="_Path_91" data-name="&lt;Path&gt;" class="cls-5" d="M16.83,97.72a.69.69,0,0,0,.49.81.64.64,0,0,0,.76-.53.69.69,0,0,0-.49-.81A.64.64,0,0,0,16.83,97.72Z"/><path id="_Path_92" data-name="&lt;Path&gt;" class="cls-5" d="M45.86,99a.69.69,0,0,0,.49.81.64.64,0,0,0,.76-.53.69.69,0,0,0-.49-.81A.64.64,0,0,0,45.86,99Z"/><path id="_Path_93" data-name="&lt;Path&gt;" class="cls-5" d="M45.86,99a.69.69,0,0,0,.49.81.64.64,0,0,0,.76-.53.69.69,0,0,0-.49-.81A.64.64,0,0,0,45.86,99Z"/><path id="_Path_94" data-name="&lt;Path&gt;" class="cls-5" d="M54,86a.69.69,0,0,0,.49.82.64.64,0,0,0,.76-.53.69.69,0,0,0-.49-.81A.64.64,0,0,0,54,86Z"/><path id="_Path_95" data-name="&lt;Path&gt;" class="cls-5" d="M39.34,76.14a.69.69,0,0,0,.49.81.64.64,0,0,0,.76-.53.68.68,0,0,0-.49-.81A.64.64,0,0,0,39.34,76.14Z"/><path id="_Path_96" data-name="&lt;Path&gt;" class="cls-5" d="M45.86,99a.69.69,0,0,0,.49.81.64.64,0,0,0,.76-.53.69.69,0,0,0-.49-.81A.64.64,0,0,0,45.86,99Z"/><path id="_Path_97" data-name="&lt;Path&gt;" class="cls-5" d="M63.5,104.83a.69.69,0,0,0,.49.81.64.64,0,0,0,.76-.53.68.68,0,0,0-.49-.81A.64.64,0,0,0,63.5,104.83Z"/><path id="_Path_98" data-name="&lt;Path&gt;" class="cls-5" d="M17.25,70.49a.69.69,0,0,0,.49.81.64.64,0,0,0,.76-.53A.69.69,0,0,0,18,70,.64.64,0,0,0,17.25,70.49Z"/><path id="_Path_99" data-name="&lt;Path&gt;" class="cls-5" d="M39,69.52a.69.69,0,0,0,.49.81.64.64,0,0,0,.76-.53.69.69,0,0,0-.49-.81A.64.64,0,0,0,39,69.52Z"/><path id="_Path_100" data-name="&lt;Path&gt;" class="cls-5" d="M17.25,70.49a.69.69,0,0,0,.49.81.64.64,0,0,0,.76-.53A.69.69,0,0,0,18,70,.64.64,0,0,0,17.25,70.49Z"/><path id="_Path_101" data-name="&lt;Path&gt;" class="cls-5" d="M39,69.52a.69.69,0,0,0,.49.81.64.64,0,0,0,.76-.53.69.69,0,0,0-.49-.81A.64.64,0,0,0,39,69.52Z"/><path id="_Path_102" data-name="&lt;Path&gt;" class="cls-5" d="M1.3,84.07a.69.69,0,0,0,.49.81.64.64,0,0,0,.76-.53.69.69,0,0,0-.49-.81A.64.64,0,0,0,1.3,84.07Z"/><path id="_Path_103" data-name="&lt;Path&gt;" class="cls-5" d="M17.25,70.49a.69.69,0,0,0,.49.81.64.64,0,0,0,.76-.53A.69.69,0,0,0,18,70,.64.64,0,0,0,17.25,70.49Z"/><path id="_Path_104" data-name="&lt;Path&gt;" class="cls-5" d="M1.3,84.07a.69.69,0,0,0,.49.81.64.64,0,0,0,.76-.53.69.69,0,0,0-.49-.81A.64.64,0,0,0,1.3,84.07Z"/><path id="_Path_105" data-name="&lt;Path&gt;" class="cls-5" d="M17.25,70.49a.69.69,0,0,0,.49.81.64.64,0,0,0,.76-.53A.69.69,0,0,0,18,70,.64.64,0,0,0,17.25,70.49Z"/><path id="_Path_106" data-name="&lt;Path&gt;" class="cls-5" d="M4.48,93.11a.69.69,0,0,0,.49.81.64.64,0,0,0,.76-.53.69.69,0,0,0-.49-.81A.64.64,0,0,0,4.48,93.11Z"/><path id="_Path_107" data-name="&lt;Path&gt;" class="cls-5" d="M1.3,84.07a.69.69,0,0,0,.49.81.64.64,0,0,0,.76-.53.69.69,0,0,0-.49-.81A.64.64,0,0,0,1.3,84.07Z"/><path id="_Path_108" data-name="&lt;Path&gt;" class="cls-5" d="M121.29,75.28a.69.69,0,0,0,.49.81.64.64,0,0,0,.76-.53.69.69,0,0,0-.49-.81A.64.64,0,0,0,121.29,75.28Z"/><path id="_Path_109" data-name="&lt;Path&gt;" class="cls-5" d="M117.62,71.47a.69.69,0,0,0,.49.81.64.64,0,0,0,.76-.53.69.69,0,0,0-.49-.81A.64.64,0,0,0,117.62,71.47Z"/><path id="_Path_110" data-name="&lt;Path&gt;" class="cls-5" d="M107.29,84.55a.69.69,0,0,0,.49.81.64.64,0,0,0,.76-.53.69.69,0,0,0-.49-.81A.64.64,0,0,0,107.29,84.55Z"/><path id="_Path_111" data-name="&lt;Path&gt;" class="cls-5" d="M121.29,75.28a.69.69,0,0,0,.49.81.64.64,0,0,0,.76-.53.69.69,0,0,0-.49-.81A.64.64,0,0,0,121.29,75.28Z"/><path id="_Path_112" data-name="&lt;Path&gt;" class="cls-5" d="M114.82,94a.69.69,0,0,0,.49.81.64.64,0,0,0,.76-.53.69.69,0,0,0-.49-.81A.64.64,0,0,0,114.82,94Z"/><path id="_Path_113" data-name="&lt;Path&gt;" class="cls-5" d="M107.29,84.55a.69.69,0,0,0,.49.81.64.64,0,0,0,.76-.53.69.69,0,0,0-.49-.81A.64.64,0,0,0,107.29,84.55Z"/><path id="_Path_114" data-name="&lt;Path&gt;" class="cls-5" d="M121.29,75.28a.69.69,0,0,0,.49.81.64.64,0,0,0,.76-.53.69.69,0,0,0-.49-.81A.64.64,0,0,0,121.29,75.28Z"/><path id="_Path_115" data-name="&lt;Path&gt;" class="cls-5" d="M117.62,71.47a.69.69,0,0,0,.49.81.64.64,0,0,0,.76-.53.69.69,0,0,0-.49-.81A.64.64,0,0,0,117.62,71.47Z"/><path id="_Path_116" data-name="&lt;Path&gt;" class="cls-5" d="M121.29,75.28a.69.69,0,0,0,.49.81.64.64,0,0,0,.76-.53.69.69,0,0,0-.49-.81A.64.64,0,0,0,121.29,75.28Z"/><path id="_Path_117" data-name="&lt;Path&gt;" class="cls-5" d="M114.82,94a.69.69,0,0,0,.49.81.64.64,0,0,0,.76-.53.69.69,0,0,0-.49-.81A.64.64,0,0,0,114.82,94Z"/><path id="_Path_118" data-name="&lt;Path&gt;" class="cls-5" d="M117.62,71.47a.69.69,0,0,0,.49.81.64.64,0,0,0,.76-.53.69.69,0,0,0-.49-.81A.64.64,0,0,0,117.62,71.47Z"/><path id="_Path_119" data-name="&lt;Path&gt;" class="cls-5" d="M80,88.41a.69.69,0,0,0,.49.82.64.64,0,0,0,.76-.53.69.69,0,0,0-.49-.81A.64.64,0,0,0,80,88.41Z"/><path id="_Path_120" data-name="&lt;Path&gt;" class="cls-5" d="M83.15,64.18a.69.69,0,0,0,.49.81.64.64,0,0,0,.76-.53.69.69,0,0,0-.49-.81A.64.64,0,0,0,83.15,64.18Z"/><path id="_Path_121" data-name="&lt;Path&gt;" class="cls-5" d="M65.52,66.68a.69.69,0,0,0,.49.81.64.64,0,0,0,.76-.53.69.69,0,0,0-.49-.81A.64.64,0,0,0,65.52,66.68Z"/><path id="_Path_122" data-name="&lt;Path&gt;" class="cls-5" d="M80,88.41a.69.69,0,0,0,.49.82.64.64,0,0,0,.76-.53.69.69,0,0,0-.49-.81A.64.64,0,0,0,80,88.41Z"/><path id="_Path_123" data-name="&lt;Path&gt;" class="cls-5" d="M63.5,104.83a.69.69,0,0,0,.49.81.64.64,0,0,0,.76-.53.68.68,0,0,0-.49-.81A.64.64,0,0,0,63.5,104.83Z"/><path id="_Path_124" data-name="&lt;Path&gt;" class="cls-5" d="M61,95.34a.68.68,0,0,0,.49.81.64.64,0,0,0,.75-.53.68.68,0,0,0-.49-.81A.64.64,0,0,0,61,95.34Z"/><path id="_Path_125" data-name="&lt;Path&gt;" class="cls-5" d="M80,88.41a.69.69,0,0,0,.49.82.64.64,0,0,0,.76-.53.69.69,0,0,0-.49-.81A.64.64,0,0,0,80,88.41Z"/><path id="_Path_126" data-name="&lt;Path&gt;" class="cls-5" d="M103.83,118.81a.69.69,0,0,0,.49.81.64.64,0,0,0,.76-.53.69.69,0,0,0-.49-.81A.64.64,0,0,0,103.83,118.81Z"/><path id="_Path_127" data-name="&lt;Path&gt;" class="cls-5" d="M63.5,104.83a.69.69,0,0,0,.49.81.64.64,0,0,0,.76-.53.68.68,0,0,0-.49-.81A.64.64,0,0,0,63.5,104.83Z"/><path id="_Path_128" data-name="&lt;Path&gt;" class="cls-5" d="M80,88.41a.69.69,0,0,0,.49.82.64.64,0,0,0,.76-.53.69.69,0,0,0-.49-.81A.64.64,0,0,0,80,88.41Z"/><path id="_Path_129" data-name="&lt;Path&gt;" class="cls-5" d="M107.29,84.55a.69.69,0,0,0,.49.81.64.64,0,0,0,.76-.53.69.69,0,0,0-.49-.81A.64.64,0,0,0,107.29,84.55Z"/><path id="_Path_130" data-name="&lt;Path&gt;" class="cls-5" d="M83.15,64.18a.69.69,0,0,0,.49.81.64.64,0,0,0,.76-.53.69.69,0,0,0-.49-.81A.64.64,0,0,0,83.15,64.18Z"/><path id="_Path_131" data-name="&lt;Path&gt;" class="cls-5" d="M80,88.41a.69.69,0,0,0,.49.82.64.64,0,0,0,.76-.53.69.69,0,0,0-.49-.81A.64.64,0,0,0,80,88.41Z"/><path id="_Path_132" data-name="&lt;Path&gt;" class="cls-5" d="M103.83,118.81a.69.69,0,0,0,.49.81.64.64,0,0,0,.76-.53.69.69,0,0,0-.49-.81A.64.64,0,0,0,103.83,118.81Z"/><path id="_Path_133" data-name="&lt;Path&gt;" class="cls-5" d="M107.29,84.55a.69.69,0,0,0,.49.81.64.64,0,0,0,.76-.53.69.69,0,0,0-.49-.81A.64.64,0,0,0,107.29,84.55Z"/><path id="_Path_134" data-name="&lt;Path&gt;" class="cls-5" d="M108.06,36a.69.69,0,0,0,.49.81.64.64,0,0,0,.76-.53.68.68,0,0,0-.49-.81A.64.64,0,0,0,108.06,36Z"/><path id="_Path_135" data-name="&lt;Path&gt;" class="cls-5" d="M103,28.32a.69.69,0,0,0,.49.81.64.64,0,0,0,.76-.53.69.69,0,0,0-.49-.81A.64.64,0,0,0,103,28.32Z"/><path id="_Path_136" data-name="&lt;Path&gt;" class="cls-5" d="M84.5,57.36a.69.69,0,0,0,.49.81.64.64,0,0,0,.76-.53.69.69,0,0,0-.49-.81A.64.64,0,0,0,84.5,57.36Z"/><path id="_Path_137" data-name="&lt;Path&gt;" class="cls-5" d="M108.06,36a.69.69,0,0,0,.49.81.64.64,0,0,0,.76-.53.68.68,0,0,0-.49-.81A.64.64,0,0,0,108.06,36Z"/><path id="_Path_138" data-name="&lt;Path&gt;" class="cls-5" d="M117.62,71.47a.69.69,0,0,0,.49.81.64.64,0,0,0,.76-.53.69.69,0,0,0-.49-.81A.64.64,0,0,0,117.62,71.47Z"/><path id="_Path_139" data-name="&lt;Path&gt;" class="cls-5" d="M84.5,57.36a.69.69,0,0,0,.49.81.64.64,0,0,0,.76-.53.69.69,0,0,0-.49-.81A.64.64,0,0,0,84.5,57.36Z"/><path id="_Path_140" data-name="&lt;Path&gt;" class="cls-5" d="M64.76,87.3a.69.69,0,0,0,.49.81.64.64,0,0,0,.76-.53.68.68,0,0,0-.49-.81A.64.64,0,0,0,64.76,87.3Z"/><path id="_Path_141" data-name="&lt;Path&gt;" class="cls-5" d="M65.52,66.68a.69.69,0,0,0,.49.81.64.64,0,0,0,.76-.53.69.69,0,0,0-.49-.81A.64.64,0,0,0,65.52,66.68Z"/><path id="_Path_142" data-name="&lt;Path&gt;" class="cls-5" d="M54,86a.69.69,0,0,0,.49.82.64.64,0,0,0,.76-.53.69.69,0,0,0-.49-.81A.64.64,0,0,0,54,86Z"/><path id="_Path_143" data-name="&lt;Path&gt;" class="cls-5" d="M64.76,87.3a.69.69,0,0,0,.49.81.64.64,0,0,0,.76-.53.68.68,0,0,0-.49-.81A.64.64,0,0,0,64.76,87.3Z"/><path id="_Path_144" data-name="&lt;Path&gt;" class="cls-5" d="M62.95,88.07a.69.69,0,0,0,.49.81.64.64,0,0,0,.76-.53.69.69,0,0,0-.49-.81A.64.64,0,0,0,62.95,88.07Z"/><path id="_Path_145" data-name="&lt;Path&gt;" class="cls-5" d="M54,86a.69.69,0,0,0,.49.82.64.64,0,0,0,.76-.53.69.69,0,0,0-.49-.81A.64.64,0,0,0,54,86Z"/><path id="_Path_146" data-name="&lt;Path&gt;" class="cls-5" d="M64.76,87.3a.69.69,0,0,0,.49.81.64.64,0,0,0,.76-.53.68.68,0,0,0-.49-.81A.64.64,0,0,0,64.76,87.3Z"/><path id="_Path_147" data-name="&lt;Path&gt;" class="cls-5" d="M80,88.41a.69.69,0,0,0,.49.82.64.64,0,0,0,.76-.53.69.69,0,0,0-.49-.81A.64.64,0,0,0,80,88.41Z"/><path id="_Path_148" data-name="&lt;Path&gt;" class="cls-5" d="M65.52,66.68a.69.69,0,0,0,.49.81.64.64,0,0,0,.76-.53.69.69,0,0,0-.49-.81A.64.64,0,0,0,65.52,66.68Z"/><path id="_Path_149" data-name="&lt;Path&gt;" class="cls-5" d="M64.76,87.3a.69.69,0,0,0,.49.81.64.64,0,0,0,.76-.53.68.68,0,0,0-.49-.81A.64.64,0,0,0,64.76,87.3Z"/><path id="_Path_150" data-name="&lt;Path&gt;" class="cls-5" d="M62.95,88.07a.69.69,0,0,0,.49.81.64.64,0,0,0,.76-.53.69.69,0,0,0-.49-.81A.64.64,0,0,0,62.95,88.07Z"/><path id="_Path_151" data-name="&lt;Path&gt;" class="cls-5" d="M61,95.34a.68.68,0,0,0,.49.81.64.64,0,0,0,.75-.53.68.68,0,0,0-.49-.81A.64.64,0,0,0,61,95.34Z"/><path id="_Path_152" data-name="&lt;Path&gt;" class="cls-5" d="M64.76,87.3a.69.69,0,0,0,.49.81.64.64,0,0,0,.76-.53.68.68,0,0,0-.49-.81A.64.64,0,0,0,64.76,87.3Z"/><path id="_Path_153" data-name="&lt;Path&gt;" class="cls-5" d="M80,88.41a.69.69,0,0,0,.49.82.64.64,0,0,0,.76-.53.69.69,0,0,0-.49-.81A.64.64,0,0,0,80,88.41Z"/><path id="_Path_154" data-name="&lt;Path&gt;" class="cls-5" d="M61,95.34a.68.68,0,0,0,.49.81.64.64,0,0,0,.75-.53.68.68,0,0,0-.49-.81A.64.64,0,0,0,61,95.34Z"/><path id="_Path_155" data-name="&lt;Path&gt;" class="cls-5" d="M114,.54a.69.69,0,0,0,.49.81.64.64,0,0,0,.76-.53.69.69,0,0,0-.49-.81A.64.64,0,0,0,114,.54Z"/><path id="_Path_156" data-name="&lt;Path&gt;" class="cls-5" d="M114,.54a.69.69,0,0,0,.49.81.64.64,0,0,0,.76-.53.69.69,0,0,0-.49-.81A.64.64,0,0,0,114,.54Z"/><path id="_Path_157" data-name="&lt;Path&gt;" class="cls-5" d="M114,.54a.69.69,0,0,0,.49.81.64.64,0,0,0,.76-.53.69.69,0,0,0-.49-.81A.64.64,0,0,0,114,.54Z"/><path id="_Path_158" data-name="&lt;Path&gt;" class="cls-5" d="M114,.54a.69.69,0,0,0,.49.81.64.64,0,0,0,.76-.53.69.69,0,0,0-.49-.81A.64.64,0,0,0,114,.54Z"/><path id="_Path_159" data-name="&lt;Path&gt;" class="cls-5" d="M103,28.32a.69.69,0,0,0,.49.81.64.64,0,0,0,.76-.53.69.69,0,0,0-.49-.81A.64.64,0,0,0,103,28.32Z"/><path id="_Path_160" data-name="&lt;Path&gt;" class="cls-5" d="M108.06,36a.69.69,0,0,0,.49.81.64.64,0,0,0,.76-.53.68.68,0,0,0-.49-.81A.64.64,0,0,0,108.06,36Z"/><path id="_Path_161" data-name="&lt;Path&gt;" class="cls-5" d="M103,28.32a.69.69,0,0,0,.49.81.64.64,0,0,0,.76-.53.69.69,0,0,0-.49-.81A.64.64,0,0,0,103,28.32Z"/><path id="_Path_162" data-name="&lt;Path&gt;" class="cls-5" d="M114,.54a.69.69,0,0,0,.49.81.64.64,0,0,0,.76-.53.69.69,0,0,0-.49-.81A.64.64,0,0,0,114,.54Z"/><path id="_Path_163" data-name="&lt;Path&gt;" class="cls-5" d="M117.62,71.47a.69.69,0,0,0,.49.81.64.64,0,0,0,.76-.53.69.69,0,0,0-.49-.81A.64.64,0,0,0,117.62,71.47Z"/><path id="_Path_164" data-name="&lt;Path&gt;" class="cls-5" d="M108.06,36a.69.69,0,0,0,.49.81.64.64,0,0,0,.76-.53.68.68,0,0,0-.49-.81A.64.64,0,0,0,108.06,36Z"/><path id="_Path_165" data-name="&lt;Path&gt;" class="cls-5" d="M117.62,71.47a.69.69,0,0,0,.49.81.64.64,0,0,0,.76-.53.69.69,0,0,0-.49-.81A.64.64,0,0,0,117.62,71.47Z"/><path id="_Path_166" data-name="&lt;Path&gt;" class="cls-5" d="M4.48,93.11a.69.69,0,0,0,.49.81.64.64,0,0,0,.76-.53.69.69,0,0,0-.49-.81A.64.64,0,0,0,4.48,93.11Z"/><path id="_Path_167" data-name="&lt;Path&gt;" class="cls-5" d="M4.48,93.11a.69.69,0,0,0,.49.81.64.64,0,0,0,.76-.53.69.69,0,0,0-.49-.81A.64.64,0,0,0,4.48,93.11Z"/><path id="_Path_168" data-name="&lt;Path&gt;" class="cls-5" d="M1.3,84.07a.69.69,0,0,0,.49.81.64.64,0,0,0,.76-.53.69.69,0,0,0-.49-.81A.64.64,0,0,0,1.3,84.07Z"/><path id="_Path_169" data-name="&lt;Path&gt;" class="cls-5" d="M114.82,94a.69.69,0,0,0,.49.81.64.64,0,0,0,.76-.53.69.69,0,0,0-.49-.81A.64.64,0,0,0,114.82,94Z"/><path id="_Path_170" data-name="&lt;Path&gt;" class="cls-5" d="M103.83,118.81a.69.69,0,0,0,.49.81.64.64,0,0,0,.76-.53.69.69,0,0,0-.49-.81A.64.64,0,0,0,103.83,118.81Z"/><path id="_Path_171" data-name="&lt;Path&gt;" class="cls-5" d="M114.82,94a.69.69,0,0,0,.49.81.64.64,0,0,0,.76-.53.69.69,0,0,0-.49-.81A.64.64,0,0,0,114.82,94Z"/><path id="_Path_172" data-name="&lt;Path&gt;" class="cls-5" d="M103.83,118.81a.69.69,0,0,0,.49.81.64.64,0,0,0,.76-.53.69.69,0,0,0-.49-.81A.64.64,0,0,0,103.83,118.81Z"/><path id="_Path_173" data-name="&lt;Path&gt;" class="cls-5" d="M103.83,118.81a.69.69,0,0,0,.49.81.64.64,0,0,0,.76-.53.69.69,0,0,0-.49-.81A.64.64,0,0,0,103.83,118.81Z"/></g></g></g></g></g></g></g></svg>